<svg xmlns="http://www.w3.org/2000/svg" xmlns:xlink="http://www.w3.org/1999/xlink" contentStyleType="text/css" data-diagram-type="DESCRIPTION" height="786px" preserveAspectRatio="none" style="width:305px;height:786px;background:#FFFFFF;" version="1.1" viewBox="0 0 305 786" width="305px" zoomAndPan="magnify"><defs/><g><!--entity S--><g class="entity" data-qualified-name="S" data-source-line="4" id="ent0002"><ellipse cx="33.5557" cy="597.2" fill="#F1F1F1" rx="8" ry="8" style="stroke:#181818;stroke-width:0.5;"/><path d="M33.5557,605.2 L33.5557,632.2 M20.5557,613.2 L46.5557,613.2 M33.5557,632.2 L20.5557,647.2 M33.5557,632.2 L46.5557,647.2" fill="none" style="stroke:#181818;stroke-width:0.5;"/><text fill="#000000" font-family="sans-serif" font-size="14" lengthAdjust="spacing" textLength="55.1113" x="6" y="661.6951">Student</text></g><!--entity A--><g class="entity" data-qualified-name="A" data-source-line="5" id="ent0003"><ellipse cx="33.5521" cy="259.2" fill="#F1F1F1" rx="8" ry="8" style="stroke:#181818;stroke-width:0.5;"/><path d="M33.5521,267.2 L33.5521,294.2 M20.5521,275.2 L46.5521,275.2 M33.5521,294.2 L20.5521,309.2 M33.5521,294.2 L46.5521,309.2" fill="none" style="stroke:#181818;stroke-width:0.5;"/><text fill="#000000" font-family="sans-serif" font-size="14" lengthAdjust="spacing" textLength="44.8643" x="11.12" y="323.6951">Admin</text></g><!--entity UCLogin--><g class="entity" data-qualified-name="UCLogin" data-source-line="7" id="ent0004"><ellipse cx="210.2704" cy="496.8536" fill="#F1F1F1" rx="29.8804" ry="14.5236" style="stroke:#181818;stroke-width:0.5;"/><text fill="#000000" font-family="sans-serif" font-size="14" lengthAdjust="spacing" textLength="38.0146" x="191.2631" y="501.5021">Login</text></g><!--entity UCViewHome--><g class="entity" data-qualified-name="UCViewHome" data-source-line="8" id="ent0005"><ellipse cx="210.2707" cy="626.8536" fill="#F1F1F1" rx="59.0907" ry="14.5236" style="stroke:#181818;stroke-width:0.5;"/><text fill="#000000" font-family="sans-serif" font-size="14" lengthAdjust="spacing" textLength="79.3242" x="170.6086" y="631.5021">View Home</text></g><!--entity UCViewSubjects--><g class="entity" data-qualified-name="UCViewSubjects" data-source-line="9" id="ent0006"><ellipse cx="210.2657" cy="561.8451" fill="#F1F1F1" rx="66.5757" ry="15.7151" style="stroke:#181818;stroke-width:0.5;"/><text fill="#000000" font-family="sans-serif" font-size="14" lengthAdjust="spacing" textLength="97.6104" x="161.4605" y="566.4936">View Subjects</text></g><!--entity UCViewSubject--><g class="entity" data-qualified-name="UCViewSubject" data-source-line="10" id="ent0007"><ellipse cx="210.2746" cy="694.8549" fill="#F1F1F1" rx="82.2746" ry="18.8549" style="stroke:#181818;stroke-width:0.5;"/><text fill="#000000" font-family="sans-serif" font-size="14" lengthAdjust="spacing" textLength="136.0078" x="142.2707" y="699.5034">View Subject Detail</text></g><!--entity UCViewSchedule--><g class="entity" data-qualified-name="UCViewSchedule" data-source-line="11" id="ent0008"><ellipse cx="210.2683" cy="764.8497" fill="#F1F1F1" rx="68.3983" ry="16.0797" style="stroke:#181818;stroke-width:0.5;"/><text fill="#000000" font-family="sans-serif" font-size="14" lengthAdjust="spacing" textLength="102.3135" x="159.1116" y="769.4981">View Schedule</text></g><!--entity UCAddStudent--><g class="entity" data-qualified-name="UCAddStudent" data-source-line="12" id="ent0009"><ellipse cx="210.2681" cy="87.8536" fill="#F1F1F1" rx="62.5681" ry="14.9136" style="stroke:#181818;stroke-width:0.5;"/><text fill="#000000" font-family="sans-serif" font-size="14" lengthAdjust="spacing" textLength="86.9121" x="166.812" y="92.5021">Add Student</text></g><!--entity UCViewStudents--><g class="entity" data-qualified-name="UCViewStudents" data-source-line="13" id="ent0010"><ellipse cx="210.2671" cy="153.8494" fill="#F1F1F1" rx="67.6471" ry="15.9294" style="stroke:#181818;stroke-width:0.5;"/><text fill="#000000" font-family="sans-serif" font-size="14" lengthAdjust="spacing" textLength="100.3857" x="160.0742" y="158.4979">View Students</text></g><!--entity UCAddSubject--><g class="entity" data-qualified-name="UCAddSubject" data-source-line="14" id="ent0011"><ellipse cx="210.2734" cy="219.8527" fill="#F1F1F1" rx="61.5634" ry="14.7127" style="stroke:#181818;stroke-width:0.5;"/><text fill="#000000" font-family="sans-serif" font-size="14" lengthAdjust="spacing" textLength="84.1367" x="168.205" y="224.5011">Add Subject</text></g><!--entity UCAddAnnouncement--><g class="entity" data-qualified-name="UCAddAnnouncement" data-source-line="15" id="ent0012"><ellipse cx="210.2655" cy="288.8471" fill="#F1F1F1" rx="83.2855" ry="19.0571" style="stroke:#181818;stroke-width:0.5;"/><text fill="#000000" font-family="sans-serif" font-size="14" lengthAdjust="spacing" textLength="138.3594" x="141.0858" y="293.4955">Add Announcement</text></g><!--entity UCViewAnnouncements--><g class="entity" data-qualified-name="UCViewAnnouncements" data-source-line="16" id="ent0013"><ellipse cx="210.2682" cy="362.8516" fill="#F1F1F1" rx="89.1582" ry="20.2316" style="stroke:#181818;stroke-width:0.5;"/><text fill="#000000" font-family="sans-serif" font-size="14" lengthAdjust="spacing" textLength="151.833" x="134.3517" y="367.5001">View Announcements</text></g><!--entity UCViewStats--><g class="entity" data-qualified-name="UCViewStats" data-source-line="17" id="ent0014"><ellipse cx="210.267" cy="432.8536" fill="#F1F1F1" rx="55.127" ry="14.5236" style="stroke:#181818;stroke-width:0.5;"/><text fill="#000000" font-family="sans-serif" font-size="14" lengthAdjust="spacing" textLength="73.7188" x="173.4077" y="437.5021">View Stats</text></g><!--entity UCIssueWarning--><g class="entity" data-qualified-name="UCIssueWarning" data-source-line="18" id="ent0015"><ellipse cx="210.2672" cy="21.8494" fill="#F1F1F1" rx="67.2472" ry="15.8494" style="stroke:#181818;stroke-width:0.5;"/><text fill="#000000" font-family="sans-serif" font-size="14" lengthAdjust="spacing" textLength="99.3535" x="160.5905" y="26.4979">Issue Warning</text></g><!--link S to UCLogin--><g class="link" data-entity-1="ent0002" data-entity-2="ent0004" data-link-type="dependency" data-source-line="20" id="lnk16"><path d="M60.93,588.67 C76.47,568.56 97.66,544.82 121.11,528.85 C139.82,516.11 158.4072,509.3332 176.7872,504.3732" fill="none" id="S-to-UCLogin" style="stroke:#181818;stroke-width:1;"/><polygon fill="#181818" points="182.58,502.81,172.8487,501.293,177.7527,504.1127,174.933,509.0167,182.58,502.81" style="stroke:#181818;stroke-width:1;"/></g><!--link S to UCViewHome--><g class="link" data-entity-1="ent0002" data-entity-2="ent0005" data-link-type="dependency" data-source-line="21" id="lnk17"><path d="M61.47,626.85 C85.21,626.85 114.63,626.85 144.84,626.85" fill="none" id="S-to-UCViewHome" style="stroke:#181818;stroke-width:1;"/><polygon fill="#181818" points="150.84,626.85,141.84,622.85,145.84,626.85,141.84,630.85,150.84,626.85" style="stroke:#181818;stroke-width:1;"/></g><!--link S to UCViewSubjects--><g class="link" data-entity-1="ent0002" data-entity-2="ent0006" data-link-type="dependency" data-source-line="22" id="lnk18"><path d="M61.47,616.84 C91.43,605.69 134.3766,589.7123 167.5966,577.3523" fill="none" id="S-to-UCViewSubjects" style="stroke:#181818;stroke-width:1;"/><polygon fill="#181818" points="173.22,575.26,163.3901,574.6495,168.5338,577.0036,166.1798,582.1473,173.22,575.26" style="stroke:#181818;stroke-width:1;"/></g><!--link S to UCViewSubject--><g class="link" data-entity-1="ent0002" data-entity-2="ent0007" data-link-type="dependency" data-source-line="23" id="lnk19"><path d="M61.47,637.33 C89.61,648.28 128.5785,663.444 161.4185,676.224" fill="none" id="S-to-UCViewSubject" style="stroke:#181818;stroke-width:1;"/><polygon fill="#181818" points="167.01,678.4,160.0734,671.4083,162.3504,676.5867,157.1721,678.8637,167.01,678.4" style="stroke:#181818;stroke-width:1;"/></g><!--link S to UCViewSchedule--><g class="link" data-entity-1="ent0002" data-entity-2="ent0008" data-link-type="dependency" data-source-line="24" id="lnk20"><path d="M59.33,665.45 C74.87,687.12 96.59,713.25 121.11,730.85 C134.04,740.13 144.1867,745.2119 158.8067,750.4919" fill="none" id="S-to-UCViewSchedule" style="stroke:#181818;stroke-width:1;"/><polygon fill="#181818" points="164.45,752.53,157.3438,745.7107,159.7473,750.8316,154.6264,753.2351,164.45,752.53" style="stroke:#181818;stroke-width:1;"/></g><!--link A to UCLogin--><g class="link" data-entity-1="ent0003" data-entity-2="ent0004" data-link-type="dependency" data-source-line="26" id="lnk21"><path d="M44.27,327.35 C56.14,366.95 79.91,427.91 121.11,464.85 C137.96,479.96 156.6479,486.7762 175.5679,491.0562" fill="none" id="A-to-UCLogin" style="stroke:#181818;stroke-width:1;"/><polygon fill="#181818" points="181.42,492.38,173.5244,486.4928,176.5432,491.2768,171.7592,494.2957,181.42,492.38" style="stroke:#181818;stroke-width:1;"/></g><!--link A to UCAddStudent--><g class="link" data-entity-1="ent0003" data-entity-2="ent0009" data-link-type="dependency" data-source-line="27" id="lnk22"><path d="M45.39,250.41 C57.87,212.63 81.87,155.73 121.11,120.85 C132.96,110.32 142.808,104.9575 157.518,99.9675" fill="none" id="A-to-UCAddStudent" style="stroke:#181818;stroke-width:1;"/><polygon fill="#181818" points="163.2,98.04,153.3921,97.1432,158.465,99.6462,155.962,104.7192,163.2,98.04" style="stroke:#181818;stroke-width:1;"/></g><!--link A to UCViewStudents--><g class="link" data-entity-1="ent0003" data-entity-2="ent0010" data-link-type="dependency" data-source-line="28" id="lnk23"><path d="M56.18,255.98 C71.97,234.15 95.09,206.24 121.11,187.85 C134.24,178.57 144.5939,173.4501 159.3339,168.1501" fill="none" id="A-to-UCViewStudents" style="stroke:#181818;stroke-width:1;"/><polygon fill="#181818" points="164.98,166.12,155.1574,165.4011,160.2749,167.8118,157.8643,172.9293,164.98,166.12" style="stroke:#181818;stroke-width:1;"/></g><!--link A to UCAddSubject--><g class="link" data-entity-1="ent0003" data-entity-2="ent0011" data-link-type="dependency" data-source-line="29" id="lnk24"><path d="M56.47,279.08 C73.89,271.42 98.92,260.61 121.11,251.85 C138.38,245.03 152.099,239.9565 168.269,234.1865" fill="none" id="A-to-UCAddSubject" style="stroke:#181818;stroke-width:1;"/><polygon fill="#181818" points="173.92,232.17,164.0992,231.4274,169.2108,233.8504,166.7878,238.962,173.92,232.17" style="stroke:#181818;stroke-width:1;"/></g><!--link A to UCViewSubjects--><g class="link" data-entity-1="ent0003" data-entity-2="ent0006" data-link-type="dependency" data-source-line="30" id="lnk25"><path d="M38.45,327.38 C45.73,379.7 66.01,473.08 121.11,528.85 C131.45,539.31 139.7598,544.4812 153.5298,549.4012" fill="none" id="A-to-UCViewSubjects" style="stroke:#181818;stroke-width:1;"/><polygon fill="#181818" points="159.18,551.42,152.0506,544.625,154.4715,549.7377,149.3589,552.1586,159.18,551.42" style="stroke:#181818;stroke-width:1;"/></g><!--link A to UCAddAnnouncement--><g class="link" data-entity-1="ent0003" data-entity-2="ent0012" data-link-type="dependency" data-source-line="31" id="lnk26"><path d="M56.33,288.85 C74.17,288.85 94.6,288.85 120.5,288.85" fill="none" id="A-to-UCAddAnnouncement" style="stroke:#181818;stroke-width:1;"/><polygon fill="#181818" points="126.5,288.85,117.5,284.85,121.5,288.85,117.5,292.85,126.5,288.85" style="stroke:#181818;stroke-width:1;"/></g><!--link A to UCViewAnnouncements--><g class="link" data-entity-1="ent0003" data-entity-2="ent0013" data-link-type="dependency" data-source-line="32" id="lnk27"><path d="M56.24,298.17 C73.73,305.67 98.99,316.48 121.11,325.85 C135.78,332.07 146.3171,336.4989 160.6671,342.5189" fill="none" id="A-to-UCViewAnnouncements" style="stroke:#181818;stroke-width:1;"/><polygon fill="#181818" points="166.2,344.84,159.4481,337.6698,161.5893,342.9057,156.3533,345.0469,166.2,344.84" style="stroke:#181818;stroke-width:1;"/></g><!--link A to UCViewStats--><g class="link" data-entity-1="ent0003" data-entity-2="ent0014" data-link-type="dependency" data-source-line="33" id="lnk28"><path d="M56.33,327.15 C71.71,351.21 94.31,381.29 121.11,400.85 C135.05,411.03 146.8405,416.4468 162.5805,421.4368" fill="none" id="A-to-UCViewStats" style="stroke:#181818;stroke-width:1;"/><polygon fill="#181818" points="168.3,423.25,160.9296,416.7172,163.5338,421.739,158.512,424.3431,168.3,423.25" style="stroke:#181818;stroke-width:1;"/></g><!--link A to UCIssueWarning--><g class="link" data-entity-1="ent0003" data-entity-2="ent0015" data-link-type="dependency" data-source-line="34" id="lnk29"><path d="M39.06,250.21 C46.96,199.24 67.89,109.73 121.11,55.85 C131.72,45.11 140.4383,39.7424 154.4983,34.6524" fill="none" id="A-to-UCIssueWarning" style="stroke:#181818;stroke-width:1;"/><polygon fill="#181818" points="160.14,32.61,150.3159,31.9125,155.4386,34.312,153.0391,39.4347,160.14,32.61" style="stroke:#181818;stroke-width:1;"/></g><!--SRC=[RP7DJiCm383lUGfhzxq2KWG7aBXLmDaa9Wjhaoa_GhmzoveK9-kj_lpLTkoPlX8a3y6QKm9j0wbalHFnRDq50ovmGNL6GrFwdGbA6fsPIGXKoGUOKjRa4c24gIAf5-iAa4BaI0eZmQitAtjxl7rkYSExfHzuzWiTrdI9IpWOK_xyllQEp6fetuGdIcZdUt_KrObqdddxXlvDgNLxQVMkf8AntagxGIiQwgtZi7hZVCMIpldi52rTQqw7_Zp5X-ZutSmu38pSUOan4tnWSDQPgjrOHK9CS3m-RBTjqNPA3hQhxS2UjIi8sLLl4Rk0vB-rPNElbfTxSp2lMokN- -NrxP0HlfK_]--></g></svg>